<svg width="25" height="19" viewBox="0 0 25 19" fill="none" xmlns="http://www.w3.org/2000/svg">
<path fill-rule="evenodd" clip-rule="evenodd" d="M0.744141 18.2402H24.7438V0.240234H0.744141V18.2402Z" fill="#00008B"/>
<path fill-rule="evenodd" clip-rule="evenodd" d="M12.258 0.240234L8.30605 3.09823V0.240234H6.14607V3.09823L2.19312 0.240234H0.744141V1.28823L3.6161 3.36523H0.744141V6.49123H3.6161L0.744141 8.56723V9.61523H2.19312L6.14607 6.75723V9.61523H8.30605V6.75723L12.258 9.61523H13.708V8.56723L10.836 6.49123H13.708V3.36523H10.836L13.708 1.28823V0.240234H12.258Z" fill="white"/>
<path fill-rule="evenodd" clip-rule="evenodd" d="M6.57807 0.240234V3.99023H0.744141V5.86523H6.57807V9.61523H7.87405V5.86523H13.708V3.99023H7.87405V0.240234H6.57807Z" fill="#FF0000"/>
<path fill-rule="evenodd" clip-rule="evenodd" d="M0.744341 0.240234V0.939234L4.0993 3.36523H5.06529L0.744341 0.240234Z" fill="#FF0000"/>
<path fill-rule="evenodd" clip-rule="evenodd" d="M12.7412 0.240234L8.42024 3.36523H9.38623L13.7082 0.240234H12.7412Z" fill="#FF0000"/>
<path fill-rule="evenodd" clip-rule="evenodd" d="M5.06519 6.49073L0.744241 9.61573H1.71123L6.03218 6.49073H5.06519Z" fill="#FF0000"/>
<path fill-rule="evenodd" clip-rule="evenodd" d="M9.38633 6.49043L13.7073 9.61543V8.91643L10.3523 6.49043H9.38633Z" fill="#FF0000"/>
<path fill-rule="evenodd" clip-rule="evenodd" d="M9.74416 14.9289L8.10718 15.0719L8.33218 16.6999L7.20119 15.5079L6.06821 16.6999L6.29421 15.0719L4.65723 14.9289L6.07021 14.0899L5.16122 12.7219L6.6972 13.3039L7.20119 11.7399L7.70319 13.3039L9.24017 12.7219L8.33118 14.0899L9.74416 14.9289Z" fill="white"/>
<path fill-rule="evenodd" clip-rule="evenodd" d="M19.2615 14.7689L18.5935 14.5159L18.9885 15.1099L18.3745 15.4749L19.0855 15.5369L18.9875 16.2429L19.4805 15.7259L19.9715 16.2429L19.8735 15.5369L20.5845 15.4749L19.9705 15.1099L20.3655 14.5159L19.6985 14.7689L19.4805 14.0899L19.2615 14.7689Z" fill="white"/>
<path fill-rule="evenodd" clip-rule="evenodd" d="M18.9885 3.26123L18.5935 2.66623L19.2615 2.91923L19.4795 2.24023L19.6985 2.91923L20.3655 2.66623L19.9705 3.26123L20.5845 3.62523L19.8735 3.68723L19.9715 4.39423L19.4795 3.87723L18.9885 4.39423L19.0865 3.68723L18.3745 3.62523L18.9885 3.26123Z" fill="white"/>
<path fill-rule="evenodd" clip-rule="evenodd" d="M15.6481 8.35243L15.2531 7.75843L15.9201 8.01043L16.1391 7.33143L16.3571 8.01043L17.025 7.75843L16.6301 8.35243L17.244 8.71743L16.5331 8.77843L16.6311 9.48543L16.1391 8.96843L15.6471 9.48543L15.7451 8.77843L15.0341 8.71743L15.6481 8.35243Z" fill="white"/>
<path fill-rule="evenodd" clip-rule="evenodd" d="M22.5828 6.28343L21.9138 6.03043L22.3098 6.62543L21.6958 6.98943L22.4058 7.05143L22.3078 7.75843L22.7998 7.24143L23.2908 7.75843L23.1938 7.05143L23.9048 6.98943L23.2908 6.62543L23.6848 6.03043L23.0188 6.28343L22.7998 5.60343L22.5828 6.28343Z" fill="white"/>
<path fill-rule="evenodd" clip-rule="evenodd" d="M21.2135 9.92343L20.8245 10.1644L20.9335 9.72043L20.5845 9.42543L21.0405 9.39243L21.2135 8.96843L21.3865 9.39243L21.8425 9.42543L21.4925 9.72043L21.6025 10.1644L21.2135 9.92343Z" fill="white"/>
</svg>
