<svg width="25" height="19" viewBox="0 0 25 19" fill="none" xmlns="http://www.w3.org/2000/svg">
<path fill-rule="evenodd" clip-rule="evenodd" d="M0.466797 18.2402H24.4668V0.240234H0.466797V18.2402Z" fill="#DE2910"/>
<path fill-rule="evenodd" clip-rule="evenodd" d="M5.57148 3.90363L4.96648 2.04063L4.36148 3.90363H2.39648L3.98548 5.05963L3.37848 6.92763L4.96648 5.77263L6.55348 6.92763L5.94648 5.05963L7.53648 3.90363H5.57148Z" fill="#FFDE00"/>
<path fill-rule="evenodd" clip-rule="evenodd" d="M9.38908 1.70543L8.78708 1.44943L9.12308 2.01143L8.69508 2.50243L9.33008 2.35743L9.66808 2.91843L9.72608 2.26643L10.3631 2.11943L9.76208 1.86343L9.81908 1.21243L9.38908 1.70543Z" fill="#FFDE00"/>
<path fill-rule="evenodd" clip-rule="evenodd" d="M11.0187 4.07933L11.1107 4.72733L11.4177 4.14933L12.0627 4.26133L11.6067 3.79133L11.9137 3.21333L11.3257 3.50133L10.8697 3.03133L10.9617 3.68033L10.3747 3.96733L11.0187 4.07933Z" fill="#FFDE00"/>
<path fill-rule="evenodd" clip-rule="evenodd" d="M12.113 6.23173L11.459 6.25473L11.234 5.63973L11.053 6.26973L10.401 6.29273L10.943 6.65773L10.762 7.28773L11.279 6.88373L11.822 7.24973L11.597 6.63473L12.113 6.23173Z" fill="#FFDE00"/>
<path fill-rule="evenodd" clip-rule="evenodd" d="M9.78388 7.49683L9.37488 8.00883L8.76288 7.77783L9.12188 8.32383L8.71288 8.83483L9.34588 8.66283L9.70488 9.20883L9.73488 8.55583L10.3669 8.38283L9.75388 8.15183L9.78388 7.49683Z" fill="#FFDE00"/>
</svg>
