<svg width="25" height="19" viewBox="0 0 25 19" fill="none" xmlns="http://www.w3.org/2000/svg">
<path fill-rule="evenodd" clip-rule="evenodd" d="M0.893555 18.2402H24.8936V0.240234H0.893555V18.2402Z" fill="#DE2408"/>
<path fill-rule="evenodd" clip-rule="evenodd" d="M12.5275 9.38054C12.5275 9.38054 10.7135 8.59953 10.9735 6.57454C11.2255 5.59954 11.6705 4.93654 12.4775 4.57454C12.8555 4.45754 13.2415 4.40654 13.6365 4.37354C13.5325 4.47154 13.4465 4.56954 13.4015 4.69254C13.3145 4.91354 13.3795 5.12654 13.4935 5.33954C13.6395 5.58654 13.7265 5.84054 13.7545 6.17154C13.8075 6.63654 13.6085 7.08454 13.2415 7.35654C13.0095 7.53554 12.7355 7.59654 12.5105 7.80154C12.3375 7.97254 12.2305 8.14254 12.1915 8.43954C12.1865 9.00554 12.3405 9.08454 12.5275 9.38054Z" fill="white"/>
<path fill-rule="evenodd" clip-rule="evenodd" d="M12.6818 9.24674C12.6818 9.24674 12.8968 7.28274 14.9098 6.93774C15.9148 6.89374 16.6808 7.12474 17.2618 7.78974C17.4848 8.11774 17.6468 8.47273 17.7948 8.83974C17.6708 8.76873 17.5518 8.71474 17.4198 8.70873C17.1828 8.68973 16.9988 8.81374 16.8288 8.98674C16.6358 9.19774 16.4178 9.35573 16.1098 9.47873C15.6808 9.66573 15.1948 9.60774 14.8268 9.33574C14.5878 9.16674 14.4488 8.92173 14.1868 8.76774C13.9728 8.65173 13.7788 8.60074 13.4828 8.64973C12.9408 8.80973 12.9108 8.97973 12.6818 9.24674Z" fill="white"/>
<path fill-rule="evenodd" clip-rule="evenodd" d="M12.8175 9.38834C12.8175 9.38834 14.7485 8.96934 15.7135 10.7673C16.0755 11.7063 16.0995 12.5053 15.6525 13.2693C15.4135 13.5843 15.1285 13.8503 14.8275 14.1073C14.8545 13.9673 14.8675 13.8363 14.8325 13.7103C14.7745 13.4803 14.5985 13.3443 14.3815 13.2383C14.1195 13.1213 13.9005 12.9653 13.6855 12.7123C13.3725 12.3663 13.2735 11.8853 13.4135 11.4513C13.4985 11.1693 13.6865 10.9603 13.7495 10.6633C13.7915 10.4233 13.7785 10.2223 13.6385 9.95833C13.3135 9.49534 13.1425 9.52034 12.8175 9.38834Z" fill="white"/>
<path fill-rule="evenodd" clip-rule="evenodd" d="M12.774 9.58764C12.774 9.58764 13.719 11.3226 12.264 12.7546C11.464 13.3656 10.704 13.6126 9.84596 13.3996C9.47596 13.2576 9.14096 13.0596 8.80996 12.8416C8.95196 12.8286 9.08096 12.8046 9.19196 12.7356C9.39696 12.6146 9.47796 12.4076 9.51896 12.1696C9.55596 11.8866 9.64596 11.6316 9.82696 11.3546C10.073 10.9556 10.506 10.7266 10.962 10.7386C11.255 10.7416 11.509 10.8626 11.812 10.8406C12.054 10.8136 12.243 10.7446 12.458 10.5356C12.811 10.0936 12.738 9.93764 12.774 9.58764Z" fill="white"/>
<path fill-rule="evenodd" clip-rule="evenodd" d="M12.5602 9.55003C12.5602 9.55003 11.2372 11.018 9.40316 10.121C8.56116 9.57003 8.07616 8.93504 7.99316 8.05504C8.00216 7.65904 8.07916 7.27703 8.17416 6.89204C8.23316 7.02204 8.29816 7.13504 8.40016 7.21704C8.58216 7.37104 8.80516 7.37804 9.04316 7.33804C9.32316 7.27904 9.59216 7.27904 9.91416 7.35804C10.3722 7.45704 10.7322 7.78904 10.8722 8.22404C10.9672 8.50204 10.9372 8.78104 11.0592 9.05904C11.1642 9.27804 11.2922 9.43404 11.5612 9.56604C12.0952 9.75304 12.2192 9.63304 12.5602 9.55003Z" fill="white"/>
<path fill-rule="evenodd" clip-rule="evenodd" d="M12.3273 9.13743C12.1543 8.98544 12.0283 8.77144 11.9453 8.52843C11.8623 8.28543 11.8223 8.01243 11.8223 7.74344C11.8223 7.48544 11.8593 7.23044 11.9283 7.01044C11.9963 6.78944 12.0973 6.60344 12.2223 6.48244L12.1603 6.41944C12.0213 6.55544 11.9153 6.75344 11.8443 6.98344C11.7723 7.21444 11.7343 7.47644 11.7343 7.74344C11.7343 8.02144 11.7753 8.30244 11.8613 8.55644C11.9483 8.81044 12.0813 9.03744 12.2683 9.20343L12.3273 9.13743Z" fill="#DE2408"/>
<path fill-rule="evenodd" clip-rule="evenodd" d="M12.8556 8.98363C12.9956 8.67463 13.2936 8.42163 13.6476 8.24763C14.0006 8.07363 14.4086 7.97864 14.7626 7.97864C14.9976 7.97864 15.2086 8.02063 15.3626 8.10563L15.4056 8.02864C15.2316 7.93363 15.0076 7.89064 14.7626 7.89064C14.3936 7.89064 13.9746 7.98864 13.6076 8.16964C13.2426 8.34964 12.9286 8.61164 12.7756 8.94764L12.8556 8.98363Z" fill="#DE2408"/>
<path fill-rule="evenodd" clip-rule="evenodd" d="M13.1222 9.46994C13.3312 9.49094 13.5392 9.57694 13.7332 9.70594C14.0242 9.89893 14.2832 10.1899 14.4682 10.5019C14.6542 10.8129 14.7642 11.1449 14.7642 11.4159L14.7512 11.5679L14.8382 11.5839L14.8522 11.4159C14.8522 11.2199 14.8002 11.0019 14.7082 10.7829C14.5722 10.4549 14.3472 10.1239 14.0722 9.86493C13.7972 9.60593 13.4722 9.41794 13.1312 9.38194L13.1222 9.46994Z" fill="#DE2408"/>
<path fill-rule="evenodd" clip-rule="evenodd" d="M12.7819 9.90304L12.7999 10.107C12.8009 10.535 12.5739 11.008 12.2619 11.381C12.1059 11.566 11.9279 11.727 11.7489 11.845C11.5699 11.964 11.3879 12.039 11.2249 12.055L11.2349 12.143C11.4169 12.124 11.6099 12.042 11.7979 11.919C12.0789 11.733 12.3499 11.452 12.5529 11.132C12.7539 10.811 12.8869 10.451 12.8879 10.107L12.8679 9.88704L12.7819 9.90304Z" fill="#DE2408"/>
<path fill-rule="evenodd" clip-rule="evenodd" d="M12.2652 9.66234C12.0642 9.77734 11.8192 9.82834 11.5602 9.82834C11.1842 9.82834 10.7792 9.72034 10.4412 9.55034C10.2712 9.46434 10.1192 9.36434 9.99415 9.25534C9.86915 9.14534 9.77415 9.02834 9.71715 8.90934L9.63815 8.94734C9.70215 9.07934 9.80515 9.20634 9.93615 9.32134C10.1332 9.49434 10.3912 9.64134 10.6752 9.74734C10.9582 9.85334 11.2662 9.91634 11.5602 9.91634C11.8312 9.91634 12.0912 9.86334 12.3082 9.73834L12.2652 9.66234Z" fill="#DE2408"/>
<path fill-rule="evenodd" clip-rule="evenodd" d="M12.6246 6.09984L12.7406 6.29384L12.5256 6.20584L12.3646 6.37884L12.3926 6.15184L12.1776 6.06484L12.4106 6.01284L12.4376 5.78584L12.5536 5.97984L12.7856 5.92784L12.6246 6.09984Z" fill="#DE2408"/>
<path fill-rule="evenodd" clip-rule="evenodd" d="M15.8473 8.37813L15.6963 8.54613L15.7163 8.31514L15.5043 8.21113L15.7293 8.17213L15.7493 7.94014L15.8683 8.14714L16.0923 8.10714L15.9403 8.27414L16.0593 8.48214L15.8473 8.37813Z" fill="#DE2408"/>
<path fill-rule="evenodd" clip-rule="evenodd" d="M14.6466 12.1139L14.4386 12.0239L14.6656 11.9699L14.6956 11.7359L14.8046 11.9359L15.0306 11.8829L14.8716 12.0599L14.9806 12.2599L14.7736 12.1699L14.6156 12.3479L14.6466 12.1139Z" fill="#DE2408"/>
<path fill-rule="evenodd" clip-rule="evenodd" d="M10.672 12.1081L10.7 11.8841L10.816 12.0861L11.048 12.0491L10.886 12.2111L11.002 12.4121L10.787 12.3091L10.625 12.4701L10.654 12.2471L10.439 12.1441L10.672 12.1081Z" fill="#DE2408"/>
<path fill-rule="evenodd" clip-rule="evenodd" d="M9.48395 8.40494L9.70495 8.35694L9.55295 8.53294L9.66495 8.73994L9.45895 8.64094L9.30695 8.81694L9.33195 8.57994L9.12695 8.48094L9.34795 8.43394L9.37195 8.19694L9.48395 8.40494Z" fill="#DE2408"/>
</svg>
