<svg width="25" height="18" viewBox="0 0 25 18" fill="none" xmlns="http://www.w3.org/2000/svg">
<path fill-rule="evenodd" clip-rule="evenodd" d="M0.706055 16.6402H24.7061V15.3602H0.706055V16.6402Z" fill="#CC0001"/>
<path fill-rule="evenodd" clip-rule="evenodd" d="M0.706055 12.8002H24.7061V11.5202H0.706055V12.8002Z" fill="white"/>
<path fill-rule="evenodd" clip-rule="evenodd" d="M0.706055 15.3602H24.7061V14.0802H0.706055V15.3602Z" fill="white"/>
<path fill-rule="evenodd" clip-rule="evenodd" d="M0.706055 10.2402H24.7061V8.96024H0.706055V10.2402Z" fill="white"/>
<path fill-rule="evenodd" clip-rule="evenodd" d="M0.706055 8.96024H24.7061V7.68024H0.706055V8.96024Z" fill="#CC0001"/>
<path fill-rule="evenodd" clip-rule="evenodd" d="M0.706055 7.68024H24.7061V6.40024H0.706055V7.68024Z" fill="white"/>
<path fill-rule="evenodd" clip-rule="evenodd" d="M0.706055 6.40024H24.7061V5.12024H0.706055V6.40024Z" fill="#CC0001"/>
<path fill-rule="evenodd" clip-rule="evenodd" d="M0.706055 5.12024H24.7061V3.84024H0.706055V5.12024Z" fill="white"/>
<path fill-rule="evenodd" clip-rule="evenodd" d="M0.706055 3.84024H24.7061V2.56024H0.706055V3.84024Z" fill="#CC0001"/>
<path fill-rule="evenodd" clip-rule="evenodd" d="M0.706055 2.56024H24.7061V1.28024H0.706055V2.56024Z" fill="white"/>
<path fill-rule="evenodd" clip-rule="evenodd" d="M0.706055 1.28024H24.7061V0.000244141H0.706055V1.28024Z" fill="#CC0001"/>
<path fill-rule="evenodd" clip-rule="evenodd" d="M0.706055 14.0802H24.7061V12.8002H0.706055V14.0802Z" fill="#CC0001"/>
<path fill-rule="evenodd" clip-rule="evenodd" d="M0.706055 17.9202H24.7061V16.6402H0.706055V17.9202Z" fill="white"/>
<path fill-rule="evenodd" clip-rule="evenodd" d="M0.706055 11.0002H11.7061V0.000244141H0.706055V11.0002Z" fill="#010066"/>
<path fill-rule="evenodd" clip-rule="evenodd" d="M6.70605 8.566C5.06042 9.50374 3.00265 8.87005 2.11359 7.17218C1.22454 5.47281 1.83834 3.35048 3.48544 2.43231C4.50108 1.86485 5.61976 1.85432 6.63393 2.41274C6.06134 2.27126 5.55058 2.27878 4.99419 2.44736C3.37358 2.94107 2.44331 4.70968 2.9158 6.40002C3.3883 8.08735 5.08545 9.0582 6.70458 8.566H6.70605Z" fill="#FFCC00"/>
<path fill-rule="evenodd" clip-rule="evenodd" d="M8.85553 4.72196L10.2229 3.96291L9.13595 5.0749L10.7061 4.9697L9.23328 5.51156L10.6933 6.08282L9.12668 5.94595L10.1881 7.08056L8.83815 6.2921L9.29122 7.76495L8.42448 6.48214L8.17882 8.00024L7.96677 6.47649L7.07222 7.74119L7.55773 6.27852L6.18925 7.03871L7.27616 5.92558L5.70605 6.03079L7.17998 5.49006L5.7188 4.91766L7.28659 5.05454L6.22402 3.92106L7.57512 4.70839L7.12205 3.23667L7.98879 4.51947L8.23444 3.00024L8.44534 4.524L9.34105 3.25929L8.85553 4.72196Z" fill="#FFCC00"/>
<path fill-rule="evenodd" clip-rule="evenodd" d="M0.706055 11.5202H24.7061V10.2402H0.706055V11.5202Z" fill="#CC0001"/>
</svg>
