<svg width="109" height="29" viewBox="0 0 109 29" fill="none" xmlns="http://www.w3.org/2000/svg">
<path d="M0.25641 14.4615C0.102564 14.3589 0 14.2051 0 14V0.923039C0 0.666629 0.051282 0.461501 0.153846 0.358937C0.25641 0.256373 0.461538 0.153809 0.717949 0.153809H4.97436C6.25641 0.153809 7.33333 0.461501 8.30769 1.07689C9.28205 1.69227 9.74359 2.82047 9.74359 4.51278C9.74359 5.69227 9.48718 6.61535 8.92308 7.28201C8.35897 7.94868 7.74359 8.35894 7.07692 8.61535C6.41026 8.82048 5.74359 8.97432 5.23077 8.97432H2.71795V14.0512C2.71795 14.4615 2.35897 14.6666 1.64103 14.6666H1.12821C0.717949 14.6153 0.461538 14.5641 0.25641 14.4615ZM5.02564 6.61535C5.53846 6.61535 6.05128 6.4615 6.46154 6.15381C6.87179 5.84612 7.07692 5.28201 7.07692 4.51278C7.07692 3.74355 6.87179 3.23073 6.46154 2.92304C6.05128 2.61535 5.53846 2.4615 4.97436 2.4615H2.76923V6.61535H5.02564Z" fill="#98989A"/>
<path d="M10.6667 14.0001V7.23084C10.6667 6.30777 10.6154 5.6411 10.5641 5.23084C10.4615 4.82059 10.4615 4.56418 10.4615 4.46161C10.4615 4.25649 10.6667 4.10264 11.1282 4.00008C11.5898 3.89751 12 3.84623 12.359 3.84623C12.5641 3.84623 12.718 3.94879 12.8205 4.15392C12.9231 4.35905 12.9744 4.56418 13.0257 4.76931C13.0769 4.97443 13.1282 5.12828 13.1282 5.23084C13.7436 4.2052 14.5128 3.69238 15.4359 3.69238C15.8462 3.69238 16.1539 3.79495 16.359 4.00008C16.5641 4.2052 16.6154 4.41033 16.6154 4.66674C16.6154 4.92315 16.5641 5.28213 16.4615 5.6411C16.359 6.00008 16.2051 6.2052 16.0513 6.2052C16 6.2052 15.8462 6.15392 15.641 6.10264C15.4359 6.05136 15.2308 6.00008 15.0257 6.00008C14.6154 6.00008 14.2564 6.15392 13.9487 6.41033C13.641 6.66674 13.4359 6.92315 13.2821 7.12828V14.0514C13.2821 14.4616 12.9231 14.6667 12.1539 14.6667H11.7436C11.0257 14.6155 10.6667 14.4103 10.6667 14.0001Z" fill="#98989A"/>
<path d="M17.4872 13.2821C16.6667 12.3591 16.2564 10.9744 16.2564 9.17957C16.2564 7.3847 16.6667 6.00009 17.4872 5.07701C18.3077 4.15393 19.5385 3.64111 21.1282 3.64111C22.7179 3.64111 23.9487 4.10265 24.7692 5.07701C25.5897 6.00009 26 7.3847 26 9.17957C26 10.9744 25.5897 12.3591 24.7692 13.2821C23.9487 14.2052 22.7179 14.6668 21.1282 14.6668C19.5385 14.718 18.3077 14.2565 17.4872 13.2821ZM22.8205 11.795C23.1795 11.2309 23.3846 10.3591 23.3846 9.17957C23.3846 8.05137 23.1795 7.17957 22.8205 6.61547C22.4615 6.05137 21.8974 5.74368 21.1282 5.74368C20.359 5.74368 19.7949 6.05137 19.4359 6.61547C19.0769 7.17957 18.8718 8.05137 18.8718 9.17957C18.8718 10.3591 19.0769 11.2309 19.4359 11.795C19.7949 12.3591 20.359 12.6668 21.1282 12.6668C21.8974 12.6155 22.4615 12.3591 22.8205 11.795Z" fill="#98989A"/>
<path d="M27.3333 18.6667C27.1795 18.5642 27.0769 18.4103 27.0769 18.2052V7.23084C27.0769 6.30777 27.0256 5.6411 26.9743 5.23084C26.8718 4.82059 26.8718 4.56418 26.8718 4.46161C26.8718 4.25649 27.0769 4.10264 27.5384 4.00008C28 3.89751 28.4102 3.84623 28.7179 3.84623C28.9743 3.84623 29.1282 3.94879 29.2307 4.15392C29.3333 4.35905 29.3846 4.56418 29.4359 4.76931C29.4872 4.97443 29.5384 5.12828 29.5384 5.23084C29.8974 4.76931 30.3077 4.35905 30.8205 4.10264C31.3333 3.84623 31.8974 3.69238 32.4615 3.69238C33.2307 3.69238 33.9487 3.89751 34.5128 4.35905C35.0769 4.82059 35.5384 5.43597 35.8974 6.25649C36.2051 7.077 36.3589 8.05136 36.3589 9.17956C36.3589 10.8719 36 12.2565 35.2307 13.2308C34.4615 14.2052 33.4359 14.718 32.1025 14.718C31.1795 14.718 30.4102 14.4616 29.6923 13.9488V18.2565C29.6923 18.6667 29.3333 18.8719 28.6154 18.8719H28.2051C27.7948 18.8206 27.4871 18.7693 27.3333 18.6667ZM33.6923 9.23084C33.6923 8.10264 33.5384 7.23084 33.1795 6.66674C32.8718 6.10264 32.3589 5.79495 31.7436 5.79495C31.3333 5.79495 30.9743 5.89751 30.6154 6.15392C30.2564 6.41033 29.9487 6.71802 29.641 7.077V12.0001C30.2051 12.359 30.8205 12.5642 31.4872 12.5642C32.923 12.6155 33.6923 11.4873 33.6923 9.23084Z" fill="#98989A"/>
<path d="M38.5128 13.2821C37.641 12.3591 37.2308 10.9744 37.2308 9.23086C37.2308 7.33342 37.641 5.94881 38.5128 5.02573C39.3846 4.10265 40.5641 3.64111 42.1539 3.64111C43.641 3.64111 44.718 4.10265 45.4359 5.07701C46.1539 6.05137 46.5128 7.33342 46.5128 8.97445C46.5128 9.12829 46.4103 9.33342 46.1539 9.64111C45.8974 9.89752 45.7436 10.0514 45.5897 10.0514H39.8974C39.9487 10.9744 40.2051 11.5898 40.6667 12.0001C41.0769 12.4103 41.7436 12.6155 42.5641 12.6155C43.2821 12.6155 44.0513 12.4103 44.8205 12.0514C45.0256 11.9488 45.1795 11.8975 45.2308 11.8975C45.3846 11.8975 45.5898 12.1027 45.8462 12.4616C46.0513 12.8206 46.2051 13.1283 46.2051 13.2821C46.2051 13.5385 46 13.795 45.5897 14.0001C45.1795 14.2052 44.718 14.4103 44.1026 14.5129C43.5385 14.6155 42.9744 14.718 42.4615 14.718C40.718 14.718 39.3846 14.2565 38.5128 13.2821ZM43.9487 8.2565C43.9487 7.48727 43.7949 6.87188 43.4872 6.41034C43.1795 5.94881 42.718 5.74368 42.1026 5.74368C40.8205 5.74368 40.1026 6.56419 39.8974 8.2565H43.9487Z" fill="#98989A"/>
<path d="M47.5898 14.0001V7.23084C47.5898 6.30777 47.5385 5.6411 47.4872 5.23084C47.3846 4.82059 47.3846 4.56418 47.3846 4.46161C47.3846 4.25649 47.5898 4.10264 48.0513 4.00008C48.5128 3.89751 48.9231 3.84623 49.2821 3.84623C49.4872 3.84623 49.6411 3.94879 49.7436 4.15392C49.8462 4.35905 49.8975 4.56418 49.9487 4.76931C50 4.97443 50.0513 5.12828 50.0513 5.23084C50.6667 4.2052 51.4359 3.69238 52.359 3.69238C52.7693 3.69238 53.0769 3.79495 53.2821 4.00008C53.4872 4.2052 53.5385 4.41033 53.5385 4.66674C53.5385 4.92315 53.4872 5.28213 53.3846 5.6411C53.2821 6.00008 53.1282 6.2052 52.9744 6.2052C52.9231 6.2052 52.7693 6.15392 52.5641 6.10264C52.359 6.05136 52.1539 6.00008 51.9487 6.00008C51.5385 6.00008 51.1795 6.15392 50.8718 6.41033C50.5641 6.66674 50.359 6.92315 50.2052 7.12828V14.0514C50.2052 14.4616 49.8462 14.6667 49.077 14.6667H48.6667C47.9487 14.6155 47.5898 14.4103 47.5898 14.0001Z" fill="#98989A"/>
<path d="M55.8974 13.9487C55.3846 13.4358 55.1282 12.6666 55.1282 11.5384V5.89738H54.5641C54.359 5.89738 54.2564 5.8461 54.1538 5.69225C54.0513 5.53841 54 5.33328 54 5.02558V4.71789C54 4.4102 54.0513 4.15379 54.1538 4.05123C54.2564 3.89738 54.359 3.8461 54.5641 3.8461H55.1282L55.3846 1.8461C55.4359 1.43584 55.7436 1.23071 56.3077 1.23071H56.8205C57.3846 1.23071 57.6923 1.43584 57.6923 1.8461V3.8461H58.9231C59.1282 3.8461 59.2308 3.89738 59.3333 4.05123C59.4359 4.20507 59.4872 4.4102 59.4872 4.71789V5.02558C59.4872 5.33328 59.4359 5.58969 59.3333 5.69225C59.2308 5.8461 59.1282 5.89738 58.9231 5.89738H57.6923V11.5384C57.6923 11.9487 57.7436 12.2564 57.8974 12.4102C58.0513 12.564 58.2564 12.6666 58.5641 12.6666C58.7179 12.6666 58.8205 12.6666 58.9744 12.6153C59.0769 12.564 59.1795 12.564 59.2821 12.564C59.4359 12.564 59.5897 12.7179 59.6923 13.0769C59.7949 13.4358 59.8462 13.6923 59.8462 13.8461C59.8462 14.4102 59.2308 14.7179 58.0513 14.7179C57.1282 14.7179 56.4615 14.4615 55.8974 13.9487Z" fill="#98989A"/>
<path d="M69.641 4.20519C69.641 4.30775 69.641 4.41032 69.5897 4.56417L64.6667 18.4103C64.5641 18.718 64.2051 18.8206 63.5897 18.8206H63.282C62.9231 18.8206 62.6667 18.7693 62.5128 18.718C62.359 18.6667 62.2564 18.5642 62.2564 18.4103C62.2564 18.3078 62.3077 18.2052 62.359 18.0513L63.7949 14.3078L60.3077 4.51288C60.3077 4.4616 60.2564 4.41032 60.2564 4.35904C60.2564 4.30775 60.2564 4.25647 60.2564 4.15391C60.2564 3.8975 60.6154 3.74365 61.3846 3.74365H61.8462C62.4615 3.74365 62.8205 3.8975 62.8718 4.15391L64.4103 8.56417C64.5641 9.0257 64.7692 9.84622 65.0256 10.9231H65.0769L65.2821 10.2052C65.4359 9.53852 65.5897 8.97442 65.6923 8.61545L67.1795 4.20519C67.282 3.94878 67.641 3.79493 68.2051 3.79493H68.5641C69.2821 3.79493 69.641 3.8975 69.641 4.20519Z" fill="#98989A"/>
<path d="M81.4872 6.92308C81.5897 7.02564 81.6923 7.23077 81.6923 7.48718V13.1282C81.6923 13.6923 81.2307 14.1026 80.2564 14.359C79.282 14.5641 78.2051 14.7179 76.9743 14.7179C74.7692 14.7179 73.0769 14.1026 72 12.9231C70.9231 11.7436 70.3589 9.89744 70.3589 7.38462C70.3589 2.46154 72.6154 0 77.1795 0C77.7948 0 78.4615 0.051282 79.1282 0.205128C79.7948 0.307692 80.3589 0.512821 80.7692 0.717949C81.1795 0.923077 81.4359 1.17949 81.4359 1.38462C81.4359 1.53846 81.3846 1.74359 81.2307 2.05128C81.0769 2.30769 80.923 2.5641 80.7692 2.76923C80.6154 2.97436 80.4102 3.07692 80.3077 3.07692C80.2564 3.07692 80.1025 3.02564 79.7948 2.87179C79.4872 2.71795 79.1282 2.61538 78.6666 2.51282C78.2051 2.41026 77.6923 2.35897 77.1282 2.35897C75.7436 2.35897 74.7179 2.76923 74.1025 3.58974C73.4872 4.41026 73.1282 5.69231 73.1282 7.33333C73.1282 10.7179 74.4102 12.4103 77.0256 12.4103C77.7436 12.4103 78.359 12.359 78.9743 12.2051V9.07692H76.9743C76.7692 9.07692 76.6666 9.02564 76.5641 8.8718C76.4615 8.71795 76.4102 8.51282 76.4102 8.20513V7.69231C76.4102 7.38462 76.4615 7.12821 76.5641 7.02564C76.6666 6.87179 76.7692 6.82051 76.9743 6.82051H80.923C81.1795 6.76923 81.3846 6.82051 81.4872 6.92308Z" fill="#636569"/>
<path d="M83.1795 11.3847V4.35904C83.1795 4.15391 83.2821 4.00006 83.4359 3.8975C83.5898 3.79493 83.8975 3.74365 84.2564 3.74365H84.6667C85.3846 3.74365 85.7436 3.94878 85.7436 4.35904V11.0257C85.7436 12.0513 86.2564 12.5642 87.2821 12.5642C87.6923 12.5642 88.0513 12.4616 88.4103 12.2052C88.7693 11.9488 89.0257 11.6411 89.2821 11.2821V4.35904C89.2821 3.94878 89.641 3.74365 90.359 3.74365H90.7692C91.4872 3.74365 91.8462 3.94878 91.8462 4.35904V11.1283C91.8462 12.0513 91.8975 12.718 91.9487 13.1795C92.0513 13.5898 92.0513 13.8975 92.0513 13.9488C92.0513 14.1539 91.8462 14.3078 91.3846 14.4103C90.9231 14.5129 90.5128 14.5642 90.1539 14.5642C89.9487 14.5642 89.7949 14.4616 89.6923 14.2565C89.5898 14.0513 89.5385 13.8462 89.4872 13.5898C89.4359 13.3334 89.3846 13.1795 89.3846 13.1283C89.0257 13.5898 88.5641 13.9488 88 14.2565C87.4359 14.5642 86.8718 14.6667 86.2564 14.6667C84.2051 14.718 83.1795 13.5898 83.1795 11.3847Z" fill="#636569"/>
<path d="M93.4359 14.0001V7.23084C93.4359 6.30777 93.3846 5.6411 93.3333 5.23084C93.2308 4.82059 93.2308 4.56418 93.2308 4.46161C93.2308 4.25649 93.4359 4.10264 93.8974 4.00008C94.359 3.89751 94.7692 3.84623 95.1282 3.84623C95.3333 3.84623 95.4872 3.94879 95.5898 4.15392C95.6923 4.35905 95.7436 4.56418 95.7949 4.76931C95.8462 4.97443 95.8974 5.12828 95.8974 5.23084C96.5128 4.2052 97.2821 3.69238 98.2051 3.69238C98.6154 3.69238 98.9231 3.79495 99.1282 4.00008C99.3333 4.2052 99.3846 4.41033 99.3846 4.66674C99.3846 4.92315 99.3333 5.28213 99.2308 5.6411C99.1282 6.00008 98.9744 6.2052 98.8205 6.2052C98.7692 6.2052 98.6154 6.15392 98.4103 6.10264C98.2051 6.05136 98 6.00008 97.7949 6.00008C97.3846 6.00008 97.0256 6.15392 96.718 6.41033C96.4103 6.66674 96.2051 6.92315 96.0513 7.12828V14.0514C96.0513 14.4616 95.6923 14.6667 94.9231 14.6667H94.5128C93.7949 14.6155 93.4359 14.4103 93.4359 14.0001Z" fill="#636569"/>
<path d="M100 11.3847V4.35904C100 4.15391 100.103 4.00006 100.256 3.8975C100.41 3.79493 100.718 3.74365 101.077 3.74365H101.487C102.205 3.74365 102.564 3.94878 102.564 4.35904V11.0257C102.564 12.0513 103.077 12.5642 104.103 12.5642C104.513 12.5642 104.872 12.4616 105.231 12.2052C105.59 11.9488 105.846 11.6411 106.103 11.2821V4.35904C106.103 3.94878 106.462 3.74365 107.179 3.74365H107.59C108.308 3.74365 108.667 3.94878 108.667 4.35904V11.1283C108.667 12.0513 108.718 12.718 108.769 13.1795C108.872 13.5898 108.872 13.8975 108.872 13.9488C108.872 14.1539 108.667 14.3078 108.205 14.4103C107.744 14.5129 107.333 14.5642 106.974 14.5642C106.769 14.5642 106.615 14.4616 106.513 14.2565C106.41 14.0513 106.359 13.8462 106.308 13.5898C106.256 13.3334 106.205 13.1795 106.205 13.1283C105.846 13.5898 105.385 13.9488 104.821 14.2565C104.256 14.5642 103.692 14.6667 103.077 14.6667C101.026 14.718 100 13.5898 100 11.3847Z" fill="#636569"/>
<path d="M71.876 25.098C71.3907 25.098 71.148 24.8507 71.148 24.356V15.774C71.148 15.2793 71.3907 15.032 71.876 15.032C72.3613 15.032 72.604 15.2793 72.604 15.774V24.356C72.604 24.8507 72.3613 25.098 71.876 25.098ZM75.4401 25.098C74.9734 25.098 74.7401 24.86 74.7401 24.384V18.784C74.7401 18.308 74.9688 18.07 75.4261 18.07C75.8834 18.07 76.1121 18.308 76.1121 18.784V19.302C76.3454 18.8913 76.6628 18.5787 77.0641 18.364C77.4748 18.1493 77.9321 18.042 78.4361 18.042C80.0508 18.042 80.8581 18.9567 80.8581 20.786V24.384C80.8581 24.86 80.6248 25.098 80.1581 25.098C79.6821 25.098 79.4441 24.86 79.4441 24.384V20.87C79.4441 20.282 79.3274 19.8527 79.0941 19.582C78.8701 19.3113 78.5154 19.176 78.0301 19.176C77.4608 19.176 77.0034 19.358 76.6581 19.722C76.3221 20.0767 76.1541 20.548 76.1541 21.136V24.384C76.1541 24.86 75.9161 25.098 75.4401 25.098ZM85.3841 25.098C84.9921 25.098 84.7028 24.888 84.5161 24.468L82.1781 19.036C82.0661 18.784 82.0615 18.56 82.1641 18.364C82.2668 18.168 82.4768 18.07 82.7941 18.07C82.9621 18.07 83.0975 18.112 83.2001 18.196C83.3121 18.28 83.4101 18.4247 83.4941 18.63L85.4121 23.362L87.3721 18.63C87.4561 18.4247 87.5495 18.28 87.6521 18.196C87.7641 18.112 87.9181 18.07 88.1141 18.07C88.3661 18.07 88.5388 18.168 88.6321 18.364C88.7255 18.56 88.7208 18.7793 88.6181 19.022L86.2521 24.468C86.0748 24.888 85.7855 25.098 85.3841 25.098ZM93.0945 25.126C91.9745 25.126 91.0925 24.8133 90.4485 24.188C89.8045 23.5533 89.4825 22.69 89.4825 21.598C89.4825 20.898 89.6225 20.282 89.9025 19.75C90.1919 19.2087 90.5885 18.7887 91.0925 18.49C91.5965 18.1913 92.1752 18.042 92.8285 18.042C93.7712 18.042 94.5132 18.3453 95.0545 18.952C95.5959 19.5493 95.8665 20.3753 95.8665 21.43C95.8665 21.7473 95.6799 21.906 95.3065 21.906H90.8545C90.9572 23.3247 91.7085 24.034 93.1085 24.034C93.3885 24.034 93.6825 24.0013 93.9905 23.936C94.2985 23.8613 94.5972 23.7307 94.8865 23.544C95.0825 23.432 95.2505 23.3947 95.3905 23.432C95.5399 23.46 95.6472 23.5393 95.7125 23.67C95.7779 23.7913 95.7872 23.9313 95.7405 24.09C95.7032 24.2393 95.5959 24.37 95.4185 24.482C95.1012 24.6967 94.7279 24.86 94.2985 24.972C93.8785 25.0747 93.4772 25.126 93.0945 25.126ZM92.8845 19.036C92.2965 19.036 91.8299 19.218 91.4845 19.582C91.1392 19.946 90.9292 20.4313 90.8545 21.038H94.6765C94.6485 20.4033 94.4805 19.9133 94.1725 19.568C93.8645 19.2133 93.4352 19.036 92.8845 19.036ZM99.8021 25.126C99.3914 25.126 98.9667 25.0793 98.5281 24.986C98.0894 24.8927 97.6927 24.734 97.3381 24.51C97.1794 24.4167 97.0814 24.3 97.0441 24.16C97.0067 24.02 97.0161 23.8893 97.0721 23.768C97.1281 23.6467 97.2167 23.5627 97.3381 23.516C97.4687 23.46 97.6134 23.474 97.7721 23.558C98.1361 23.754 98.4861 23.894 98.8221 23.978C99.1581 24.062 99.4894 24.104 99.8161 24.104C100.311 24.104 100.684 24.0153 100.936 23.838C101.188 23.6607 101.314 23.4227 101.314 23.124C101.314 22.8813 101.23 22.6947 101.062 22.564C100.894 22.424 100.642 22.3167 100.306 22.242L98.9761 21.976C97.8001 21.7333 97.2121 21.1267 97.2121 20.156C97.2121 19.512 97.4687 18.9987 97.9821 18.616C98.4954 18.2333 99.1674 18.042 99.9981 18.042C100.838 18.042 101.561 18.2473 102.168 18.658C102.317 18.7513 102.406 18.868 102.434 19.008C102.462 19.1387 102.443 19.2647 102.378 19.386C102.313 19.498 102.215 19.5773 102.084 19.624C101.963 19.6707 101.818 19.652 101.65 19.568C101.37 19.4 101.09 19.2787 100.81 19.204C100.53 19.12 100.259 19.078 99.9981 19.078C99.5127 19.078 99.1441 19.1713 98.8921 19.358C98.6401 19.5353 98.5141 19.778 98.5141 20.086C98.5141 20.5527 98.8221 20.8513 99.4381 20.982L100.768 21.248C101.375 21.3693 101.832 21.5747 102.14 21.864C102.457 22.1533 102.616 22.5453 102.616 23.04C102.616 23.6933 102.359 24.2067 101.846 24.58C101.333 24.944 100.651 25.126 99.8021 25.126ZM107.033 25.126C106.174 25.126 105.535 24.9067 105.115 24.468C104.695 24.0293 104.485 23.3947 104.485 22.564V19.26H103.645C103.253 19.26 103.057 19.078 103.057 18.714C103.057 18.35 103.253 18.168 103.645 18.168H104.485V16.726C104.485 16.25 104.723 16.012 105.199 16.012C105.666 16.012 105.899 16.25 105.899 16.726V18.168H107.537C107.929 18.168 108.125 18.35 108.125 18.714C108.125 19.078 107.929 19.26 107.537 19.26H105.899V22.452C105.899 22.9467 106.002 23.32 106.207 23.572C106.422 23.824 106.767 23.95 107.243 23.95C107.411 23.95 107.556 23.936 107.677 23.908C107.798 23.8707 107.906 23.8473 107.999 23.838C108.102 23.838 108.186 23.8753 108.251 23.95C108.316 24.0153 108.349 24.146 108.349 24.342C108.349 24.4913 108.321 24.6267 108.265 24.748C108.218 24.86 108.13 24.9347 107.999 24.972C107.887 25.0187 107.733 25.056 107.537 25.084C107.35 25.112 107.182 25.126 107.033 25.126Z" fill="#D24B3A"/>
</svg>
